<svg id="clanranks-executiveofficer" data-name="clanranks-executiveofficer" xmlns="http://www.w3.org/2000/svg" viewBox="0 0 64 64">
    <defs>
        <style>
            .cls-1{ fill: #fbb03b; }
            .anchor{ fill: #ffffff; }
        </style>
    </defs>
    <title>Clan Ranks - Executive Officer</title>
    <path class="anchor" d="M30.21.18A7.71,7.71,0,0,0,25.64,3a5,5,0,0,0,0,5.57,8.77,8.77,0,0,0,3.13,2.37l.74.29-.1.56c0,.32-.09,1.41-.09,2.43v1.87H20.48l-.55-.44a4,4,0,0,0-2.95-1,4,4,0,0,0-2.91.95A2.4,2.4,0,0,0,13,17.8,2.41,2.41,0,0,0,14.07,20,4,4,0,0,0,17,21a4,4,0,0,0,2.95-1l.55-.44h8.64l-.07,1.21c-.05.63-.28,7.06-.54,14.29S28,48.67,27.88,49.29a5.4,5.4,0,0,1-1.44,3.45c-1.76,1.39-6.28,1.49-9.59.24a18.31,18.31,0,0,1-8.5-6.75c-1.16-1.73-1.19-1.63.58-1.63s2-.06,2-.36a92.13,92.13,0,0,0-7.44-8.12.5.5,0,0,0-.45.19c-.22.34-3,9-3,9.33A.41.41,0,0,0,.25,46a7.67,7.67,0,0,0,1.83-.42l1.56-.48.18.52A23.53,23.53,0,0,0,7.87,53a25.78,25.78,0,0,0,6.39,5.06,41.62,41.62,0,0,0,12,3.8c2.68.47,3.76.82,4.93,1.61L32,64l.76-.49c1.17-.79,2.25-1.14,4.93-1.61,7-1.25,11.64-3.06,15.47-6.09A20.1,20.1,0,0,0,60,46l.32-.9,1.56.48c1.67.52,2.08.53,2.08,0s-2.82-9-3-9.34a.5.5,0,0,0-.45-.19,90.61,90.61,0,0,0-7.44,8.12c0,.3.32.36,2,.36s1.67-.05.88,1.19a18.69,18.69,0,0,1-9.15,7.33c-2.66,1-6.53,1-8.51.07a2.73,2.73,0,0,1-1.6-1.64c-.6-1.41-.73-3-1.2-16.46-.26-7.32-.51-13.8-.56-14.42l-.08-1.08h8.78l.55.45a4,4,0,0,0,3,1,4,4,0,0,0,2.94-1,2.46,2.46,0,0,0,1.09-2.24,2.46,2.46,0,0,0-1.09-2.24,4,4,0,0,0-2.94-1,4,4,0,0,0-3,1l-.55.45H34.7V14.2a23.74,23.74,0,0,0-.1-2.43l-.09-.57.74-.28A8.46,8.46,0,0,0,38.31,8.6,4.82,4.82,0,0,0,38.39,3,8.71,8.71,0,0,0,35.5.68,9.08,9.08,0,0,0,30.21.18Zm3.61,2.75a4.61,4.61,0,0,1,1.92,1.52A2.41,2.41,0,0,1,36,5.83a2.4,2.4,0,0,1-1.1,2.22A3.92,3.92,0,0,1,32,9a4,4,0,0,1-2.95-1A2.41,2.41,0,0,1,28,5.83,2.43,2.43,0,0,1,29.05,3.6a4.54,4.54,0,0,1,1.84-.91A6.4,6.4,0,0,1,33.82,2.93Z"/>
    <path class="cls-1" d="M32,26h0c-.82.63-1.66,1.25-2.47,1.89s-1.66,1.24-2.46,1.89c.63,2,1.26,4.07,1.88,6.1h0c-1.6-1.19-3.2-2.45-4.79-3.65a.91.91,0,0,0-.17-.12l-.15.12c-1.19.91-2.37,1.82-3.56,2.71-.41.31-.81.65-1.23.93l1.89-6.1L16,26v0h6.11c.63-2,1.25-4.08,1.89-6.11.59,1.9,1.21,3.84,1.78,5.74a1.63,1.63,0,0,0,.13.37Z"/>
    <path class="cls-1" d="M48,26h0c-.82.63-1.66,1.25-2.47,1.89s-1.66,1.24-2.46,1.89c.63,2,1.26,4.07,1.88,6.1-1.6-1.19-3.2-2.45-4.79-3.65a.91.91,0,0,0-.17-.12l-.15.12c-1.19.91-2.37,1.82-3.56,2.71-.41.31-.81.65-1.23.93l1.89-6.1c-1.59-1.22-3.22-2.44-4.8-3.65A.58.58,0,0,1,32,26h6.11c.63-2,1.25-4.08,1.89-6.11.59,1.9,1.21,3.84,1.78,5.74a1.63,1.63,0,0,0,.13.37Z"/>
</svg>